<svg id="Capa_1" enable-background="new 0 0 511.905 511.905" height="512" viewBox="0 0 511.905 511.905" width="512" xmlns="http://www.w3.org/2000/svg"><g transform="translate(15, -10)"><path d="m165.298 118.054 4.805-24.664c3.357-17.237 18.457-29.678 36.017-29.678h99.665c17.561 0 32.66 12.442 36.018 29.678l4.805 24.664h64.909l-7.177-36.846c-9.166-47.055-50.614-81.208-98.554-81.208h-99.667c-47.939 0-89.388 34.153-98.555 81.209l-7.177 36.845z"/><g><path d="m435.767 358.349h-108.612c-5.186 17.32-21.262 29.982-40.246 29.982h-61.912c-18.984 0-35.06-12.662-40.246-29.982h-108.613c-29.821 0-56.803-12.372-76.096-32.247v117.074c0 37.958 30.771 68.729 68.729 68.729h374.362c37.958 0 68.729-30.771 68.729-68.729v-117.074c-19.292 19.875-46.274 32.247-76.095 32.247z"/><path d="m481.127 148.054h-450.349c-16.975 0-30.736 13.761-30.736 30.736v73.463c0 42.027 34.069 76.096 76.096 76.096h106.849v-17.972c0-23.164 18.846-42.01 42.01-42.01h61.912c23.164 0 42.01 18.846 42.01 42.01v17.972h106.849c42.027 0 76.096-34.069 76.096-76.096v-73.463c-.001-16.975-13.762-30.736-30.737-30.736z"/><path d="m224.997 358.33c-6.622 0-12.01-5.388-12.01-12.01v-35.943c0-6.622 5.388-12.01 12.01-12.01h61.912c6.622 0 12.01 5.388 12.01 12.01v35.943c0 6.622-5.388 12.01-12.01 12.01z"/></g></g></svg>