<?xml version="1.0" encoding="utf-8"?>
<!-- Generator: Adobe Illustrator 27.0.0, SVG Export Plug-In . SVG Version: 6.00 Build 0)  -->
<svg version="1.1" id="Layer_1" xmlns="http://www.w3.org/2000/svg" xmlns:xlink="http://www.w3.org/1999/xlink" x="0px" y="0px"
	 viewBox="0 0 338.9 340.2" style="enable-background:new 0 0 338.9 340.2;" xml:space="preserve">
<style type="text/css">
	.st0{clip-path:url(#SVGID_00000099622457213365173560000008353989395526204092_);}
	.st1{fill:#FFFFFF;}
</style>
<g>
	<defs>
		<rect id="SVGID_1_" x="5.5" y="4" width="330" height="330"/>
	</defs>
	<clipPath id="SVGID_00000019640210260850648830000002328454100705716369_">
		<use xlink:href="#SVGID_1_"  style="overflow:visible;"/>
	</clipPath>
	<g style="clip-path:url(#SVGID_00000019640210260850648830000002328454100705716369_);">
		<path class="st1" d="M277,252.1l-52.7-13.2l-3-12.2c36.3-6.1,55-17,55.9-17.5c2-1.1,3.2-3.2,3.3-5.5c0.2-2.3-0.9-4.5-2.6-5.9
			c-0.2-0.2-24.8-20.5-24.8-90.8c0-59.3-13.9-89.4-41.2-89.4h-4.1C197.9,8.2,190.5,4,170.5,4C144.7,4,88,30,88,107.1
			c0,70.3-24.6,90.6-24.8,90.8c-1.8,1.4-2.9,3.6-2.8,5.8c0.1,2.3,1.4,4.4,3.3,5.5c0.8,0.5,19.3,11.4,55.9,17.5l-3,12.1l-52.7,13.2
			c-34.5,8.6-58.5,39.5-58.5,75c0,3.8,3.1,6.9,6.9,6.9h316.3c3.8,0,6.9-3.1,6.9-6.9C335.5,291.5,311.5,260.7,277,252.1z"/>
	</g>
</g>
</svg>
