<?xml version="1.0" encoding="utf-8"?>
<!-- Generator: Adobe Illustrator 27.0.0, SVG Export Plug-In . SVG Version: 6.00 Build 0)  -->
<svg version="1.1" id="Layer_1" xmlns="http://www.w3.org/2000/svg" xmlns:xlink="http://www.w3.org/1999/xlink" x="0px" y="0px"
	 viewBox="0 0 98.6 105.7" style="enable-background:new 0 0 98.6 105.7;" xml:space="preserve">
<path d="M72.1,2.3H10.8C6,2.3,2,6.2,2,11v82.4c0,4.8,3.9,8.8,8.8,8.8h61.3c4.8,0,8.8-3.9,8.8-8.8l0-82.4C80.9,6.2,77,2.3,72.1,2.3z
	 M78.7,93.4c0,3.6-3,6.6-6.6,6.6H10.8c-3.6,0-6.6-3-6.6-6.6l0-82.4c0-3.6,3-6.6,6.6-6.6h61.3c3.6,0,6.6,3,6.6,6.6L78.7,93.4
	L78.7,93.4z M60.9,75.3c0-0.6-0.5-1.1-1.1-1.1H42.6V57.5c0-0.6-0.5-1.1-1.1-1.1c-10.7,0-19.4,8.7-19.4,19.4s8.7,19.4,19.4,19.4
	c10.7,0,19.4-8.7,19.4-19.4c0-0.1,0-0.2,0-0.3L60.9,75.3L60.9,75.3z M41.5,93c-9.5,0-17.2-7.7-17.2-17.2c0-9.1,7.1-16.6,16.1-17.2
	v16.8c0,0.6,0.5,1.1,1.1,1.1h17.2C58.4,85.7,50.8,93,41.5,93L41.5,93z M14.7,35.1h12.9c0.6,0,1.1-0.5,1.1-1.1v-8.5
	c0-0.6-0.5-1.1-1.1-1.1H14.7c-0.6,0-1.1,0.5-1.1,1.1V34C13.6,34.6,14.1,35.1,14.7,35.1z M15.8,26.6h10.7v6.3H15.8V26.6z M71.8,27.8
	c0,0.6-0.5,1.1-1.1,1.1h-32c-0.6,0-1.1-0.5-1.1-1.1c0-0.6,0.5-1.1,1.1-1.1h32C71.3,26.8,71.8,27.2,71.8,27.8z M71.8,31.7
	c0,0.6-0.5,1.1-1.1,1.1h-32c-0.6,0-1.1-0.5-1.1-1.1s0.5-1.1,1.1-1.1h32C71.3,30.6,71.8,31.1,71.8,31.7z M14.7,21.4h12.9
	c0.6,0,1.1-0.5,1.1-1.1v-8.5c0-0.6-0.5-1.1-1.1-1.1H14.7c-0.6,0-1.1,0.5-1.1,1.1v8.5C13.6,20.9,14.1,21.4,14.7,21.4z M15.8,12.9
	h10.7v6.3H15.8V12.9z M71.8,14.1c0,0.6-0.5,1.1-1.1,1.1h-32c-0.6,0-1.1-0.5-1.1-1.1c0-0.6,0.5-1.1,1.1-1.1h32
	C71.3,13.1,71.8,13.5,71.8,14.1z M71.8,18c0,0.6-0.5,1.1-1.1,1.1h-32c-0.6,0-1.1-0.5-1.1-1.1c0-0.6,0.5-1.1,1.1-1.1h32
	C71.3,16.9,71.8,17.4,71.8,18z M28.8,47.7v-8.5c0-0.6-0.5-1.1-1.1-1.1H14.7c-0.6,0-1.1,0.5-1.1,1.1v8.5c0,0.6,0.5,1.1,1.1,1.1h12.9
	C28.3,48.8,28.8,48.3,28.8,47.7z M26.6,46.6H15.8v-6.3h10.7V46.6z M71.8,41.5c0,0.6-0.5,1.1-1.1,1.1h-32c-0.6,0-1.1-0.5-1.1-1.1
	s0.5-1.1,1.1-1.1h32C71.3,40.4,71.8,40.9,71.8,41.5z M71.8,45.4c0,0.6-0.5,1.1-1.1,1.1h-32c-0.6,0-1.1-0.5-1.1-1.1
	c0-0.6,0.5-1.1,1.1-1.1h32C71.3,44.3,71.8,44.8,71.8,45.4z M46.3,51.9h-0.9c-0.6,0-1.1,0.5-1.1,1.1v18c0,0.6,0.5,1.1,1.1,1.1h18.9
	c0.6,0,1.1-0.5,1.1-1.1C65.4,60.5,56.8,51.9,46.3,51.9L46.3,51.9z M46.5,69.9V54.1c8.9,0.1,16.1,7.1,16.7,15.9H46.5z M90.1,2.2
	c-3.1,0-5.6,2.5-5.6,5.6v79.4c0,2.4,0.5,4.8,1.4,7l3.1,7.3c0.2,0.4,0.6,0.7,1,0.7c0.4,0,0.8-0.3,1-0.7l3.1-7.3c1-2.2,1.4-4.6,1.4-7
	l0-79.4C95.7,4.7,93.2,2.2,90.1,2.2L90.1,2.2z M90.1,4.4c1.9,0,3.4,1.5,3.4,3.4v3.1h-6.8V7.8C86.7,5.9,88.3,4.4,90.1,4.4L90.1,4.4z
	 M92.3,93.4l-2.1,5l-2.1-5c-0.8-2-1.3-4-1.3-6.1l0-74.1h6.8v74.1C93.5,89.3,93.1,91.4,92.3,93.4L92.3,93.4z M92.9,35.7v5.9
	c0,0.6-0.5,1.1-1.1,1.1c-0.6,0-1.1-0.5-1.1-1.1v-4.8h-1.2v17h1.2v-8.4c0-0.6,0.5-1.1,1.1-1.1c0.6,0,1.1,0.5,1.1,1.1v9.5
	c0,0.6-0.5,1.1-1.1,1.1h-3.4c-0.6,0-1.1-0.5-1.1-1.1V35.7c0-0.6,0.5-1.1,1.1-1.1h3.4C92.4,34.6,92.9,35.1,92.9,35.7L92.9,35.7z"/>
</svg>
