<?xml version="1.0" encoding="utf-8"?>
<!-- Generator: Adobe Illustrator 27.0.0, SVG Export Plug-In . SVG Version: 6.00 Build 0)  -->
<svg version="1.1" id="Layer_1" xmlns="http://www.w3.org/2000/svg" xmlns:xlink="http://www.w3.org/1999/xlink" x="0px" y="0px"
	 viewBox="0 0 309.1 369.3" style="enable-background:new 0 0 309.1 369.3;" xml:space="preserve">
<style type="text/css">
	.st0{fill:#FFFFFF;}
</style>
<path class="st0" d="M90.5,124.4c1.5,1.1,3.1,2.1,4.2,3.5c1.6,2,2,4.8,2.4,7.3c2.4,14.5,7.8,28.7,17.2,40
	c9.4,11.3,23,19.4,37.7,20.6c0.9,0.1,1.8,0.1,2.6,0.1c0.9,0,1.7,0,2.6-0.1c14.7-1.1,28.3-9.3,37.7-20.6c9.4-11.3,14.8-25.5,17.2-40
	c0.4-2.6,0.8-5.3,2.4-7.3c1.1-1.4,2.7-2.4,4.2-3.5c6.8-5.1,11.5-13,12.5-21.5c0.7-5.7-1.9-13.1-7.6-13c2.4-13.9,4.5-28.3,1.2-42.1
	c-4-16.8-16.3-31.1-31.8-38.8c-11.8-5.8-25.2-7.8-38.3-6.4c-13.1-1.4-26.5,0.6-38.3,6.4c-15.5,7.6-27.8,22-31.8,38.8
	c-3.3,13.7-1.2,28.2,1.2,42.1c-5.7,0-8.3,7.4-7.6,13C79,111.4,83.6,119.3,90.5,124.4"/>
<g>
	<g>
		<path class="st0" d="M303.6,281.4l-3.7-22.7c-1.6-10-7.4-18.9-16-24.2c-20.4-12.6-51.8-19-51.8-19c-10.6-2.1-19.9-5.3-26-7.6
			l-35.1,57l-3.6-28.6c3.2-1.6,5.5-4.9,5.5-8.7v-2.2c0-5.4-4.3-9.7-9.7-9.7h-17.3c-5.4,0-9.7,4.3-9.7,9.7v2.2c0,3.8,2.2,7.2,5.5,8.7
			l-3.6,28.6l-35.1-57c-6.1,2.3-15.5,5.5-26.1,7.6c0,0-31.4,6.4-51.7,19c-8.6,5.3-14.4,14.3-16,24.3l-3.7,22.7
			c-2.6,16-4,32.2-4,48.5v11.8c0,13.3,10.8,24,24.1,24h258c13.3,0,24.1-10.8,24.1-24v-11.8C307.6,313.6,306.3,297.4,303.6,281.4"/>
	</g>
</g>
</svg>
