<?xml version="1.0" encoding="utf-8"?>
<!-- Generator: Adobe Illustrator 27.0.0, SVG Export Plug-In . SVG Version: 6.00 Build 0)  -->
<svg version="1.1" id="Layer_1" xmlns="http://www.w3.org/2000/svg" xmlns:xlink="http://www.w3.org/1999/xlink" x="0px" y="0px"
	 viewBox="0 0 565 568" style="enable-background:new 0 0 565 568;" xml:space="preserve">
<g transform="scale(1.2) translate(-20, -20)">
	<path d="M231.3,104.2h40v32l37.1-32h50.9c8.8,0,16-7.2,16-16v-48c0-8.8-7.2-16-16-16h-128c-8.8,0-16,7.2-16,16v48
		C215.3,97,222.5,104.2,231.3,104.2z M343.3,56.2h16v16h-16V56.2z M263.3,56.2h64v16h-64V56.2z M231.3,56.2h16v16h-16V56.2z"/>
	<path d="M319.3,424.2v64h47.2l-6.4-64H319.3z"/>
	<path d="M319.3,392.2v16h80c22.1,0,40-17.9,40-40v-88h-16v72c0,22.1-17.9,40-40,40H319.3z"/>
	<path d="M95.3,376.2h24v16h-24v80h-72v16h91.1l16-32h137.9l16,32h19.1v-96h-168v-16h168v-16h-208V376.2z"/>
	<path d="M391.3,249.1c0-4.9-4-9-9-9c-2.4,0-4.7,1-6.3,2.6l-53.4,53.4h-75.3c-4.4,0-8,3.6-8,8s3.6,8,8,8H332l56.7-56.7
		C390.4,253.8,391.3,251.5,391.3,249.1z"/>
	<path d="M343.3,176.2v16c0,17.6,14.4,32,32,32s32-14.4,32-32v-16c0-17.6-14.4-32-32-32S343.3,158.5,343.3,176.2z"/>
	<path d="M319.3,376.2h64c13.2,0,24-10.8,24-24v-99.1c0-0.6-0.2-1.1-0.2-1.7c-0.5,5.8-3,11.2-7.1,15.3l-56.7,56.7v36.7h-24V376.2z"
		/>
	<path d="M140.3,472.2l-8,16h134.1l-8-16H140.3z"/>
	<path d="M79.3,328.2h248v16h-248V328.2z"/>
	<path d="M223.3,304.2c0-13.2,10.8-24,24-24h7.6c-0.9-6.2-5.1-11.5-11.3-13.3l-33-9.4c-4.6,6-13.7,14.7-27.4,14.7
		s-22.8-8.6-27.4-14.7l-33,9.4c-6.8,2-11.6,8.3-11.6,15.4v29.9h113.5C223.9,309.7,223.3,307,223.3,304.2z"/>
	<path d="M183.3,224.2c17.6,0,32-14.4,32-32v-16c0-17.6-14.4-32-32-32s-32,14.4-32,32v16C151.3,209.8,165.7,224.2,183.3,224.2z"/>
	<path d="M167.3,237.4v8.6c2,3.1,7.5,10.2,16,10.2s14-7.1,16-10.2v-8.6c-5,1.8-10.4,2.8-16,2.8S172.3,239.1,167.3,237.4z"/>
	<path d="M396.9,472.2l-4.8-48h-15.9l6.4,64h104.8v-16H396.9z"/>
</g>
</svg>
