<svg xmlns="http://www.w3.org/2000/svg" viewBox="0 0 24 24" width="24" height="24" fill="none">
  <path fill="#FFFFFF" d="M20.52 3.48A11.937 11.937 0 0012 .5C6.21.5 1.5 5.21 1.5 11c0 1.95.56 3.85 1.62 5.49L.5 23l6.75-2.16A11.84 11.84 0 0012 22.5c5.79 0 10.5-4.71 10.5-10.5 0-2.84-1.1-5.49-3.98-7.52zM12 20.5c-1.43 0-2.84-.38-4.06-1.09l-.29-.16-3.02.86.8-2.92-.2-.32A9.1 9.1 0 013 11c0-4.97 4.03-9 9-9s9 4.03 9 9-4.03 9-9 9zm4.09-5.78c-.23-.11-1.35-.66-1.56-.73-.21-.08-.36-.12-.51.12s-.58.67-.71.81c-.13.14-.26.16-.48.05-.23-.11-.97-.33-1.84-1.04-.68-.6-1.14-1.34-1.28-1.57-.14-.23-.01-.35.1-.46.1-.1.23-.26.34-.39.12-.13.15-.22.22-.36.07-.14.04-.26-.02-.36-.07-.1-.53-1.12-.72-1.54-.19-.4-.38-.35-.52-.36-.14-.01-.34 0-.5.01-.16.01-.41.08-.66.31-.25.23-.95.8-.95 1.95s.85 2.25.97 2.41c.12.16 1.72 2.55 4.17 3.57.58.25 1.02.4 1.37.52.58.18 1.11.16 1.53.1.46-.07 1.37-.54 1.56-1.06.19-.53.19-.98.13-1.07-.06-.09-.21-.14-.44-.25z"/>
</svg>