<?xml version="1.0" encoding="utf-8"?>
<!-- Generator: Adobe Illustrator 27.0.0, SVG Export Plug-In . SVG Version: 6.00 Build 0)  -->
<svg version="1.1" id="Layer_1" xmlns="http://www.w3.org/2000/svg" xmlns:xlink="http://www.w3.org/1999/xlink" x="0px" y="0px"
	 viewBox="0 0 84 85" style="enable-background:new 0 0 84 85;" xml:space="preserve">
<path d="M41.4,44.4c-2.3-2.3-5.4-3.6-8.7-3.6c-3.3,0-6.4,1.3-8.7,3.6c-2.3,2.3-3.6,5.4-3.6,8.7s1.3,6.4,3.6,8.7
	c2.4,2.4,5.5,3.6,8.7,3.6c3.1,0,6.3-1.2,8.7-3.6c2.3-2.3,3.6-5.4,3.6-8.7C45,49.8,43.7,46.7,41.4,44.4z M39.9,60.2
	c-3.9,3.9-10.4,3.9-14.3,0c-1.9-1.9-3-4.4-3-7.2c0-2.7,1.1-5.2,3-7.2c1.9-1.9,4.4-3,7.2-3c2.7,0,5.2,1.1,7.2,3c1.9,1.9,3,4.4,3,7.2
	C42.8,55.8,41.8,58.3,39.9,60.2L39.9,60.2z"/>
<path d="M72.6,1.3C72.4,1.1,72.1,1,71.8,1H21.5c-0.6,0-1.1,0.5-1.1,1.1v33.1c0,0.6,0.5,1.1,1.1,1.1c0.6,0,1.1-0.5,1.1-1.1v-32H71
	v9.1c0,0.6,0.5,1.1,1.1,1.1h8.8v66h-5.5V44.8c0-0.6-0.5-1.1-1.1-1.1h-7c-0.6,0-1.1,0.5-1.1,1.1v34.6h-4.3l0-27.6
	c0-0.6-0.5-1.1-1.1-1.1h-7c-0.6,0-1.1,0.5-1.1,1.1v27.6h-4.2V60.9c3.3-6.6,2.2-14.9-3.3-20.4c-3.3-3.3-7.8-5.2-12.5-5.2
	c-4.7,0-9.1,1.8-12.5,5.2c-5.9,5.9-6.7,15.1-2.4,21.9L14,66.4l-0.2-0.2c-0.7-0.7-1.9-0.7-2.6,0l-9.7,9.7c-0.4,0.4-0.6,0.8-0.6,1.3
	s0.2,1,0.6,1.3L5.9,83c0.4,0.4,0.8,0.6,1.3,0.6s1-0.2,1.3-0.6l9.7-9.7c0.4-0.4,0.6-0.8,0.6-1.3c0-0.4-0.2-0.9-0.4-1.2l3.7-3.7
	c3.1,2.3,6.8,3.6,10.7,3.6c2.3,0,4.5-0.4,6.6-1.3v10H22.6v-7.9c0-0.6-0.5-1.1-1.1-1.1c-0.6,0-1.1,0.5-1.1,1.1v8.9
	c0,0.6,0.5,1.1,1.1,1.1h60.3c0.6,0,1.1-0.5,1.1-1.1l0-68.6C82.9,11.3,82.9,11.3,72.6,1.3L72.6,1.3z M68.3,45.9h4.9v33.5h-4.9V45.9z
	 M54.8,52.8h4.9v26.5h-4.9L54.8,52.8z M7.2,81.3l-4.1-4.1l9.3-9.3l0.7,0.7c0,0,0,0,0,0c0,0,0,0,0,0l2.9,2.9c0,0,0,0,0,0c0,0,0,0,0,0
	l0.4,0.4L7.2,81.3z M16.8,69.3l-1.4-1.4l3.6-3.6c0.4,0.4,0.7,0.9,1.1,1.3c0.1,0.1,0.1,0.1,0.2,0.2L16.8,69.3z M21.8,64
	c-6.1-6.1-6.1-15.9,0-21.9c2.9-2.9,6.8-4.5,11-4.5c4.1,0,8,1.6,11,4.5c2.9,2.9,4.5,6.8,4.5,11s-1.6,8-4.5,11
	c-2.9,2.9-6.8,4.5-11,4.5C28.6,68.6,24.7,66.9,21.8,64L21.8,64z M41.5,79.4v-11c1.3-0.8,2.6-1.7,3.7-2.8c0.4-0.4,0.8-0.8,1.2-1.3
	v15.1L41.5,79.4z M73.1,4.8c2.2,2.1,5,4.8,6.6,6.4h-6.6V4.8z"/>
<path d="M44.2,30.3c0.1,0,0.1,0,0.1-0.1c0,0,0,0,0.1,0c3.9-2,6.6-6,6.6-10.7c0-6.6-5.4-12-12-12s-12,5.4-12,12s5.4,12,12,12
	C40.9,31.5,42.6,31.1,44.2,30.3L44.2,30.3z M44.3,27.8l-3.6-7.2h8.1C48.5,23.6,46.8,26.2,44.3,27.8L44.3,27.8z M48.8,18.4H40V9.7
	C44.6,10.2,48.3,13.8,48.8,18.4z M29.1,19.5c0-5.1,3.9-9.3,8.8-9.8v9.8c0,0,0,0,0,0c0,0.1,0,0.1,0,0.2c0,0.1,0,0.1,0.1,0.2
	c0,0,0,0,0,0l4.4,8.8c-1.1,0.4-2.2,0.6-3.4,0.6C33.5,29.4,29.1,24.9,29.1,19.5L29.1,19.5z"/>
<path d="M55.2,17.9h15.4c0.6,0,1.1-0.5,1.1-1.1c0-0.6-0.5-1.1-1.1-1.1l-15.4,0c-0.6,0-1.1,0.5-1.1,1.1
	C54.1,17.4,54.6,17.9,55.2,17.9z"/>
<path d="M55.2,23.5h20.2c0.6,0,1.1-0.5,1.1-1.1c0-0.6-0.5-1.1-1.1-1.1H55.2c-0.6,0-1.1,0.5-1.1,1.1C54.1,23,54.6,23.5,55.2,23.5z"/>
<path d="M55.2,29.1h20.2c0.6,0,1.1-0.5,1.1-1.1c0-0.6-0.5-1.1-1.1-1.1l-20.2,0c-0.6,0-1.1,0.5-1.1,1.1
	C54.1,28.6,54.6,29.1,55.2,29.1z"/>
</svg>
