<?xml version="1.0" encoding="utf-8"?>
<!-- Generator: Adobe Illustrator 27.0.0, SVG Export Plug-In . SVG Version: 6.00 Build 0)  -->
<svg version="1.1" id="Layer_1" xmlns="http://www.w3.org/2000/svg" xmlns:xlink="http://www.w3.org/1999/xlink" x="0px" y="0px"
	 viewBox="0 0 84.9 94.3" style="enable-background:new 0 0 84.9 94.3;" xml:space="preserve">
<path d="M5.8,6.7h19.7l1.3-4.8c0.1-0.5,0.7-0.8,1.2-0.7l20.7,5.5h13.2c0.6,0,1,0.4,1,1v2.8L83.5,16c0.5,0.1,0.8,0.7,0.7,1.2
	L64.1,92.4c-0.1,0.5-0.7,0.8-1.2,0.7l-20.8-5.6H2.4c-0.6,0-1-0.4-1-1V10.8c0-0.6,0.4-1,1-1h2.4V7.7C4.8,7.1,5.2,6.7,5.8,6.7L5.8,6.7
	z M49.8,87.5l12.7,3.4l19.6-73.2l-19.3-5.2v70.8c0,0.6-0.4,1-1,1h-2.4v2.1c0,0.6-0.4,1-1,1L49.8,87.5z M57.4,84.4H5.8
	c-0.6,0-1-0.4-1-1V11.8H3.4v73.7h54L57.4,84.4z M29.3,74.3c-0.6,0-1-0.4-1-1s0.4-1,1-1h24.1c0.6,0,1,0.4,1,1s-0.4,1-1,1H29.3z
	 M29.3,60c-0.6,0-1-0.4-1-1s0.4-1,1-1h24.1c0.6,0,1,0.4,1,1s-0.4,1-1,1H29.3z M29.3,70.2c-0.6,0-1-0.4-1-1s0.4-1,1-1h24.1
	c0.6,0,1,0.4,1,1s-0.4,1-1,1H29.3z M29.3,55.9c-0.6,0-1-0.4-1-1s0.4-1,1-1h24.1c0.6,0,1,0.4,1,1s-0.4,1-1,1H29.3z M29.3,66.2
	c-0.6,0-1-0.4-1-1s0.4-1,1-1H40c0.6,0,1,0.4,1,1s-0.4,1-1,1H29.3z M29.3,51.9c-0.6,0-1-0.4-1-1s0.4-1,1-1H40c0.6,0,1,0.4,1,1
	s-0.4,1-1,1H29.3z M16.3,69c-0.3-0.5-0.2-1.1,0.3-1.4c0.5-0.3,1.1-0.2,1.4,0.3l0.3,0.5l3.2-3.8c0.4-0.4,1-0.5,1.4-0.1
	c0.4,0.4,0.5,1,0.1,1.4l-4,4.8c-0.1,0.1-0.1,0.2-0.2,0.2c-0.5,0.3-1.1,0.2-1.4-0.3L16.3,69L16.3,69z M16.3,54.7
	c-0.3-0.5-0.2-1.1,0.3-1.4c0.5-0.3,1.1-0.2,1.4,0.3l0.3,0.5l3.2-3.8c0.4-0.4,1-0.5,1.4-0.1s0.5,1,0.1,1.4l-4,4.8
	c-0.1,0.1-0.1,0.2-0.2,0.2c-0.5,0.3-1.1,0.2-1.4-0.3L16.3,54.7L16.3,54.7z M21.3,69.2c0-0.6,0.4-1,1-1s1,0.4,1,1v4c0,0.6-0.4,1-1,1
	h-8.1c-0.6,0-1-0.4-1-1v-8.1c0-0.6,0.4-1,1-1h4c0.6,0,1,0.4,1,1s-0.4,1-1,1h-3v6.1h6.1V69.2z M21.3,54.9c0-0.6,0.4-1,1-1s1,0.4,1,1
	v4c0,0.6-0.4,1-1,1h-8.1c-0.6,0-1-0.4-1-1v-8.1c0-0.6,0.4-1,1-1h4c0.6,0,1,0.4,1,1s-0.4,1-1,1h-3V58h6.1V54.9z M29.3,45.7
	c-0.6,0-1-0.4-1-1s0.4-1,1-1h24.1c0.6,0,1,0.4,1,1s-0.4,1-1,1H29.3z M29.3,41.6c-0.6,0-1-0.4-1-1s0.4-1,1-1h24.1c0.6,0,1,0.4,1,1
	s-0.4,1-1,1H29.3z M29.3,37.6c-0.6,0-1-0.4-1-1s0.4-1,1-1H40c0.6,0,1,0.4,1,1s-0.4,1-1,1H29.3z M16.3,40.4c-0.3-0.5-0.2-1.1,0.3-1.4
	c0.5-0.3,1.1-0.2,1.4,0.3l0.3,0.5l3.2-3.8c0.4-0.4,1-0.5,1.4-0.1s0.5,1,0.1,1.4L19,42c-0.1,0.1-0.1,0.2-0.2,0.2
	c-0.5,0.3-1.1,0.2-1.4-0.3L16.3,40.4L16.3,40.4z M21.3,40.6c0-0.6,0.4-1,1-1s1,0.4,1,1v4c0,0.6-0.4,1-1,1h-8.1c-0.6,0-1-0.4-1-1
	v-8.1c0-0.6,0.4-1,1-1h4c0.6,0,1,0.4,1,1s-0.4,1-1,1h-3v6.1h6.1V40.6z M14.2,31.8c-0.6,0-1-0.4-1-1s0.4-1,1-1h39.3c0.6,0,1,0.4,1,1
	s-0.4,1-1,1H14.2z M14.2,27.5c-0.6,0-1-0.4-1-1s0.4-1,1-1h39.3c0.6,0,1,0.4,1,1s-0.4,1-1,1H14.2z M14.2,23.1c-0.6,0-1-0.4-1-1
	s0.4-1,1-1h39.3c0.6,0,1,0.4,1,1s-0.4,1-1,1H14.2z M37.7,18.7c-0.6,0-1-0.4-1-1s0.4-1,1-1h3.9c0.6,0,1,0.4,1,1s-0.4,1-1,1H37.7z
	 M32.9,16.7c0.6,0,1,0.4,1,1s-0.4,1-1,1H14.2c-0.6,0-1-0.4-1-1s0.4-1,1-1H32.9z M27.5,6.7h13.4L28.4,3.3L27.5,6.7z M60.8,8.7h-54
	v73.7h54V8.7z"/>
</svg>
