<?xml version="1.0" encoding="utf-8"?>
<!-- Generator: Adobe Illustrator 27.0.0, SVG Export Plug-In . SVG Version: 6.00 Build 0)  -->
<svg version="1.1" id="Layer_1" xmlns="http://www.w3.org/2000/svg" xmlns:xlink="http://www.w3.org/1999/xlink" x="0px" y="0px"
	 viewBox="0 0 50.8 65.9" style="enable-background:new 0 0 50.8 65.9;" xml:space="preserve">
<g>
	<path d="M49.6,11.3L37.2,1c-0.2-0.1-0.5-0.2-0.7-0.2H2.2c-0.6,0-1,0.4-1,1v62c0,0.6,0.4,1,1,1h46.7c0.6,0,1-0.4,1-1V12.1
		C50,11.8,49.8,11.5,49.6,11.3z M37.5,3.9l8.7,7.1h-8.7V3.9z M3.2,62.8v-60h32.3v9.3c0,0.6,0.4,1,1,1h11.4v49.7H3.2z"/>
	<path d="M26.8,28c0.6,0,1-0.4,1-1V7.6c0-0.6-0.4-1-1-1H8.6c-0.6,0-1,0.4-1,1V27c0,0.6,0.4,1,1,1C12.5,28,22.8,28,26.8,28z M13.1,26
		v-0.7c0-2.5,2-4.5,4.5-4.5h0.3c2.5,0,4.5,2,4.5,4.5V26H13.1z M9.6,8.6h16.2V26h-1.5v-0.7c0-3.6-2.9-6.5-6.5-6.5h-0.3
		c-3.6,0-6.5,2.9-6.5,6.5V26H9.6V8.6z"/>
	<path d="M17.7,17.9c2.1,0,3.8-1.7,3.8-3.8s-1.7-3.8-3.8-3.8s-3.8,1.7-3.8,3.8S15.6,17.9,17.7,17.9z M17.7,12.4c1,0,1.8,0.8,1.8,1.8
		S18.7,16,17.7,16s-1.8-0.8-1.8-1.8S16.7,12.4,17.7,12.4z"/>
	<path d="M8.1,34.2c0,0.6,0.4,1,1,1h25c0.6,0,1-0.4,1-1s-0.4-1-1-1h-25C8.5,33.2,8.1,33.6,8.1,34.2z"/>
	<path d="M42.1,40.3h-33c-0.6,0-1,0.4-1,1s0.4,1,1,1h33c0.6,0,1-0.4,1-1S42.7,40.3,42.1,40.3z"/>
	<path d="M42.1,47.4h-33c-0.6,0-1,0.4-1,1s0.4,1,1,1h33c0.6,0,1-0.4,1-1S42.7,47.4,42.1,47.4z"/>
	<path d="M30.3,54.5H9.1c-0.6,0-1,0.4-1,1s0.4,1,1,1h21.2c0.6,0,1-0.4,1-1S30.9,54.5,30.3,54.5z"/>
</g>
</svg>
